<svg width="246" height="246" viewBox="0 0 246 246" fill="none" xmlns="http://www.w3.org/2000/svg">
<g clip-path="url(#clip0_48_18)">
<path d="M104.5 178C114.712 178 123 169.787 123 159.667V141.333H104.5C94.288 141.333 86 149.547 86 159.667C86 169.787 94.288 178 104.5 178Z" fill="#0ACF83"/>
<path d="M86 123C86 112.88 94.288 104.667 104.5 104.667H123V141.333H104.5C94.288 141.333 86 133.12 86 123Z" fill="#A259FF"/>
<path d="M86 86.3333C86 76.2133 94.288 68 104.5 68H123V104.667H104.5C94.288 104.667 86 96.4533 86 86.3333Z" fill="#F24E1E"/>
<path d="M123 68H141.5C151.712 68 160 76.2133 160 86.3333C160 96.4533 151.712 104.667 141.5 104.667H123V68Z" fill="#FF7262"/>
<path d="M160 123C160 133.12 151.712 141.333 141.5 141.333C131.288 141.333 123 133.12 123 123C123 112.88 131.288 104.667 141.5 104.667C151.712 104.667 160 112.88 160 123Z" fill="#1ABCFE"/>
</g>
<defs>
<clipPath id="clip0_48_18">
<rect width="74" height="110" fill="white" transform="translate(86 68)"/>
</clipPath>
</defs>
</svg>
