<svg width="246" height="246" viewBox="0 0 246 246" fill="none" xmlns="http://www.w3.org/2000/svg">
<g clip-path="url(#clip0_48_18)">
<path d="M190.923 84.6164C190.974 84.8028 191 84.9949 191 85.1879V115.186C191 115.97 190.58 116.694 189.899 117.084L164.676 131.58V160.312C164.676 161.094 164.26 161.816 163.58 162.209L110.929 192.465C110.809 192.533 110.677 192.577 110.546 192.623C110.497 192.64 110.45 192.67 110.398 192.683C110.03 192.78 109.643 192.78 109.275 192.683C109.215 192.667 109.16 192.634 109.103 192.612C108.982 192.569 108.856 192.53 108.741 192.465L56.1011 162.209C55.4204 161.819 55 161.096 55 160.312V70.3173C55 70.1204 55.0274 69.929 55.0767 69.7431C55.0931 69.6802 55.1315 69.6228 55.1534 69.5599C55.1945 69.4451 55.2328 69.3275 55.2931 69.2209C55.3342 69.1498 55.3944 69.0924 55.4437 69.0268C55.5067 68.9393 55.5642 68.8491 55.6382 68.7725C55.7012 68.7096 55.7833 68.6631 55.8546 68.6085C55.934 68.5428 56.0052 68.4718 56.0956 68.4198H56.0983L82.4197 53.2922C83.0979 52.9026 83.9326 52.9026 84.6108 53.2922L110.932 68.4198H110.938C111.025 68.4745 111.099 68.5428 111.179 68.6057C111.25 68.6604 111.329 68.7096 111.392 68.7698C111.469 68.8491 111.524 68.9393 111.59 69.0268C111.636 69.0924 111.699 69.1498 111.737 69.2209C111.8 69.3303 111.836 69.4451 111.88 69.5599C111.902 69.6228 111.94 69.6802 111.957 69.7458C112.007 69.9322 112.033 70.1243 112.033 70.3173V126.527L133.967 113.92V85.1851C133.967 84.9937 133.994 84.7996 134.043 84.6164C134.063 84.5508 134.098 84.4934 134.12 84.4305C134.164 84.3157 134.202 84.1981 134.263 84.0915C134.304 84.0204 134.364 83.963 134.41 83.8974C134.476 83.8099 134.531 83.7197 134.608 83.6431C134.671 83.5802 134.75 83.5338 134.821 83.4791C134.903 83.4135 134.975 83.3424 135.062 83.2904H135.065L161.389 68.1628C162.067 67.7727 162.902 67.7727 163.58 68.1628L189.902 83.2904C189.995 83.3451 190.066 83.4135 190.148 83.4763C190.217 83.531 190.296 83.5802 190.359 83.6404C190.436 83.7197 190.491 83.8099 190.556 83.8974C190.606 83.963 190.666 84.0204 190.704 84.0915C190.767 84.1981 190.803 84.3157 190.847 84.4305C190.871 84.4934 190.907 84.5508 190.923 84.6164ZM186.612 113.92V88.9746L177.401 94.2677L164.676 101.581V126.527L186.615 113.92H186.612ZM160.291 159.046V134.084L147.774 141.22L112.03 161.583V186.78L160.291 159.046ZM59.3878 74.1039V159.046L107.643 186.778V161.586L82.4334 147.344L82.4251 147.339L82.4142 147.333C82.3293 147.284 82.2581 147.213 82.1786 147.153C82.1102 147.098 82.0307 147.054 81.9705 146.994L81.965 146.986C81.8938 146.918 81.8445 146.833 81.7842 146.756C81.7294 146.683 81.6637 146.62 81.6199 146.543L81.6172 146.535C81.5678 146.453 81.5377 146.355 81.5021 146.262C81.4665 146.18 81.4199 146.103 81.398 146.015V146.013C81.3706 145.909 81.3652 145.799 81.3542 145.693C81.3433 145.611 81.3213 145.529 81.3213 145.447V145.441V86.7107L68.5989 79.3944L59.3878 74.1067V74.1039ZM83.518 57.7159L61.5872 70.3173L83.5125 82.9186L105.441 70.3145L83.5125 57.7159H83.518ZM94.923 136.359L107.645 129.048V74.1039L98.4343 79.3971L85.7091 86.7107V141.655L94.923 136.359ZM162.485 72.5865L140.557 85.1879L162.485 97.7892L184.41 85.1851L162.485 72.5865ZM160.291 101.581L147.566 94.2677L138.355 88.9746V113.92L151.077 121.231L160.291 126.527V101.581ZM109.834 157.797L141.997 139.467L158.075 130.308L136.163 117.715L110.935 132.214L87.9414 145.428L109.834 157.797Z" fill="#FF2D20"/>
</g>
<defs>
<clipPath id="clip0_48_18">
<rect width="136" height="140" fill="white" transform="translate(55 53)"/>
</clipPath>
</defs>
</svg>
