<svg width="246" height="246" viewBox="0 0 246 246" fill="none" xmlns="http://www.w3.org/2000/svg">
<path d="M123 137.071C130.853 137.071 137.219 130.705 137.219 122.852C137.219 114.999 130.853 108.633 123 108.633C115.147 108.633 108.781 114.999 108.781 122.852C108.781 130.705 115.147 137.071 123 137.071Z" fill="#00D8FF"/>
<path d="M123 155.453C105.91 155.866 88.8625 153.563 72.495 148.628C64.9342 146.231 57.8823 142.455 51.6958 137.492C49.3351 135.796 47.3692 133.61 45.9329 131.083C44.4966 128.556 43.6241 125.748 43.375 122.852C43.375 113.451 53.7035 104.237 71.0049 98.2082C87.8099 92.8662 105.368 90.2772 123 90.5414C140.396 90.2984 157.72 92.8406 174.313 98.0717C181.594 100.393 188.407 103.986 194.435 108.685C196.755 110.301 198.692 112.408 200.107 114.857C201.522 117.305 202.382 120.035 202.625 122.852C202.625 132.623 191.079 142.525 172.481 148.679C156.431 153.453 139.743 155.737 123 155.453ZM123 97.3437C106.132 97.1182 89.3347 99.5795 73.2401 104.635C57.3151 110.192 50.1773 117.79 50.1773 122.835C50.1773 128.113 57.8497 136.411 74.6961 142.173C90.3542 146.87 106.658 149.056 123 148.651C139.018 148.937 154.986 146.77 170.348 142.224C187.838 136.428 195.8 128.119 195.8 122.852C195.513 121.045 194.854 119.317 193.866 117.777C192.877 116.237 191.58 114.919 190.056 113.906C184.662 109.738 178.577 106.553 172.077 104.499C156.204 99.5149 139.636 97.0995 123 97.3437Z" fill="#00D8FF"/>
<path d="M90.6952 193.77C88.042 193.83 85.4201 193.187 83.0967 191.904C74.9522 187.206 72.1312 173.659 75.5494 155.658C79.3182 138.431 85.8484 121.927 94.8869 106.785C103.365 91.5942 114.22 77.8578 127.038 66.0966C132.687 60.9477 139.203 56.8404 146.285 53.9651C148.846 52.7647 151.64 52.1425 154.469 52.1425C157.298 52.1425 160.092 52.7647 162.653 53.9651C171.122 58.845 173.926 73.7917 169.973 92.9757C166.088 109.268 159.728 124.868 151.114 139.232C142.933 154.243 132.421 167.86 119.969 179.574C114.115 184.924 107.322 189.145 99.9317 192.023C96.9732 193.122 93.8504 193.712 90.6952 193.77ZM100.779 110.163C92.1575 124.663 85.8987 140.442 82.2379 156.909C79.0927 173.488 82.1128 183.458 86.5035 185.995C91.0535 188.628 102.099 186.131 115.51 174.415C127.397 163.193 137.431 150.159 145.238 135.797C153.491 122.065 159.592 107.15 163.33 91.5709C167.05 73.5131 163.836 62.4566 159.275 59.8289C157.566 59.1739 155.739 58.8807 153.91 58.9678C152.081 59.0549 150.29 59.5205 148.651 60.3351C142.347 62.9363 136.552 66.6291 131.531 71.2437C119.284 82.5095 108.916 95.6598 100.819 110.197L100.779 110.163Z" fill="#00D8FF"/>
<path d="M155.288 193.843C147.581 193.843 137.793 189.18 127.601 180.415C114.558 168.547 103.52 154.647 94.9152 139.255C85.99 124.322 79.5116 108.056 75.7256 91.0761C74.0836 83.6055 73.7794 75.9029 74.8269 68.3261C75.0691 65.5153 75.925 62.792 77.3342 60.348C78.7434 57.904 80.6716 55.799 82.9828 54.1813C91.4401 49.2843 105.79 54.3178 120.435 67.3194C132.61 78.8206 142.948 92.1209 151.091 106.757C160.01 121.341 166.557 137.25 170.485 153.889C172.198 161.634 172.462 169.628 171.264 177.469C170.979 180.361 170.072 183.157 168.606 185.665C167.139 188.173 165.147 190.334 162.767 192.001C160.482 193.267 157.9 193.903 155.288 193.843ZM100.802 135.831C109.057 150.541 119.601 163.844 132.038 175.24C144.829 186.245 154.975 188.611 159.338 186.046C163.888 183.401 167.243 172.606 163.785 155.14C159.997 139.255 153.718 124.069 145.181 110.146C137.411 96.1386 127.543 83.4028 115.919 72.3813C102.133 60.1418 90.951 57.4061 86.3953 60.0451C84.9754 61.199 83.8102 62.6347 82.9732 64.2617C82.1362 65.8887 81.6456 67.6715 81.5325 69.4977C80.6282 76.2549 80.9228 83.1187 82.4027 89.7736C86.0444 106.012 92.2577 121.565 100.807 135.842L100.802 135.831Z" fill="#00D8FF"/>
</svg>
