<svg width="246" height="246" viewBox="0 0 246 246" fill="none" xmlns="http://www.w3.org/2000/svg">
<g clip-path="url(#clip0_48_18)">
<path d="M123.004 84.602C105.937 84.602 95.2739 93.132 91.0039 110.199C97.4019 101.668 104.871 98.469 113.402 100.602C118.273 101.816 121.754 105.348 125.609 109.262C131.883 115.629 139.145 123 155.004 123C172.07 123 182.734 114.469 187.004 97.398C180.605 105.934 173.137 109.133 164.605 107C159.735 105.785 156.258 102.254 152.398 98.34C146.128 91.973 138.868 84.602 123.004 84.602ZM91.0039 123C73.9379 123 63.2739 131.531 59.0039 148.602C65.4019 140.066 72.8699 136.867 81.4019 139C86.2729 140.215 89.7539 143.746 93.6089 147.66C99.8829 154.027 107.145 161.398 123.004 161.398C140.07 161.398 150.734 152.868 155.004 135.801C148.605 144.332 141.137 147.531 132.605 145.398C127.735 144.184 124.258 140.652 120.398 136.738C114.128 130.371 106.868 123 91.0039 123Z" fill="#38BDF8"/>
</g>
<defs>
<clipPath id="clip0_48_18">
<rect width="128" height="128" fill="white" transform="translate(59 59)"/>
</clipPath>
</defs>
</svg>
